<svg width="50" height="51" viewBox="0 0 50 51" fill="none" xmlns="http://www.w3.org/2000/svg">
<g clip-path="url(#clip0_155_36)">
<path d="M17.25 8.625V14.25H11.625V8.625H17.25ZM8.8125 5.8125V17.0625H20.0625V5.8125H8.8125ZM31.3125 12.8438V18.4688H25.6875V12.8438H31.3125ZM22.875 10.0312V21.2812H34.125V10.0312H22.875ZM17.25 25.5V31.125H11.625V25.5H17.25ZM8.8125 22.6875V33.9375H20.0625V22.6875H8.8125Z" fill="#1EC3EA"/>
<path d="M36.9375 17.0625V25.5H28.5V33.9375H20.0625V45.1875H48.1875V17.0625H36.9375ZM31.3125 28.3125H36.9375V33.9375H31.3125V28.3125ZM28.5 42.375H22.875V36.75H28.5V42.375ZM36.9375 42.375H31.3125V36.75H36.9375V42.375ZM45.375 42.375H39.75V36.75H45.375V42.375ZM45.375 33.9375H39.75V28.3125H45.375V33.9375ZM39.75 25.5V19.875H45.375V25.5H39.75Z" fill="#1EC3EA"/>
</g>
<defs>
<clipPath id="clip0_155_36">
<rect width="50" height="50" fill="white" transform="translate(0 0.0227051)"/>
</clipPath>
</defs>
</svg>
