<svg width="106" height="106" viewBox="0 0 106 106" fill="none" xmlns="http://www.w3.org/2000/svg">
<path d="M53 28V18C53 16.6739 53.5268 15.4021 54.4645 14.4645C55.4021 13.5268 56.6739 13 58 13C59.3261 13 60.5979 12.4732 61.5355 11.5355C62.4732 10.5979 63 9.32608 63 8V3M43 73L35.5 65.5M35.5 65.5L28 58M35.5 65.5L28 73M35.5 65.5L43 58M78 70.5V60.5M3 65.5C3 49.065 3 40.845 7.54 35.31C8.37046 34.2982 9.29825 33.3705 10.31 32.54C15.85 28 24.06 28 40.5 28H65.5C81.94 28 90.155 28 95.69 32.54C96.7018 33.3705 97.6295 34.2982 98.46 35.31C103 40.85 103 49.06 103 65.5C103 81.94 103 90.155 98.46 95.69C97.6295 96.7018 96.7018 97.6295 95.69 98.46C90.15 103 81.94 103 65.5 103H40.5C24.065 103 15.845 103 10.31 98.46C9.29825 97.6295 8.37046 96.7018 7.54 95.69C3 90.15 3 81.94 3 65.5Z" stroke="#1EC3EA" stroke-width="6" stroke-linecap="round" stroke-linejoin="round"/>
</svg>
