<svg width="104" height="104" viewBox="0 0 104 104" fill="none" xmlns="http://www.w3.org/2000/svg">
<path d="M6.28975 6.28975L5.58265 5.58265L6.28975 6.28975C6.39524 6.18426 6.53832 6.125 6.6875 6.125H72.3125C72.4617 6.125 72.6048 6.18426 72.7103 6.28976C72.8157 6.39524 72.875 6.53831 72.875 6.6875V22.3125C72.875 22.9921 73.145 23.6439 73.6255 24.1245L74.3326 23.4174L73.6255 24.1245C74.1061 24.605 74.7579 24.875 75.4375 24.875C76.1171 24.875 76.7689 24.605 77.2495 24.1245L76.5424 23.4174L77.2495 24.1245C77.73 23.6439 78 22.9921 78 22.3125V6.6875C78 3.55084 75.4492 1 72.3125 1H6.6875C3.55084 1 1 3.55084 1 6.6875V97.3125C1 100.449 3.55084 103 6.6875 103H50.4375C51.1171 103 51.7689 102.73 52.2495 102.249L51.5424 101.542L52.2495 102.249C52.73 101.769 53 101.117 53 100.438C53 99.7579 52.73 99.1061 52.2495 98.6255L51.5424 99.3326L52.2495 98.6255C51.7689 98.145 51.1171 97.875 50.4375 97.875H6.6875C6.53831 97.875 6.39524 97.8157 6.28975 97.7103C6.18426 97.6048 6.125 97.4617 6.125 97.3125V6.6875C6.125 6.53832 6.18426 6.39524 6.28975 6.28975Z" fill="#1EC3EA" stroke="#1EC3EA" stroke-width="2"/>
<path d="M57.25 34.8125V97.3125C57.25 100.449 59.8008 103 62.9375 103H97.3125C100.449 103 103 100.449 103 97.3125V34.8125C103 31.6758 100.449 29.125 97.3125 29.125H62.9375C59.8008 29.125 57.25 31.6758 57.25 34.8125ZM97.875 34.8125V97.3125C97.875 97.4617 97.8157 97.6048 97.7102 97.7103C97.6048 97.8157 97.4617 97.875 97.3125 97.875H62.9375C62.7883 97.875 62.6452 97.8157 62.5397 97.7103C62.4343 97.6048 62.375 97.4617 62.375 97.3125V34.8125C62.375 34.6633 62.4343 34.5202 62.5398 34.4148C62.6452 34.3093 62.7883 34.25 62.9375 34.25H97.3125C97.4617 34.25 97.6048 34.3093 97.7102 34.4148C97.8157 34.5202 97.875 34.6633 97.875 34.8125Z" fill="#1EC3EA" stroke="#1EC3EA" stroke-width="2"/>
<path d="M39.5 93.625C41.7782 93.625 43.625 91.7782 43.625 89.5C43.625 87.2218 41.7782 85.375 39.5 85.375C37.2218 85.375 35.375 87.2218 35.375 89.5C35.375 91.7782 37.2218 93.625 39.5 93.625Z" fill="#1EC3EA" stroke="#1EC3EA" stroke-width="2"/>
<path d="M80.125 93.625C82.4032 93.625 84.25 91.7782 84.25 89.5C84.25 87.2218 82.4032 85.375 80.125 85.375C77.8468 85.375 76 87.2218 76 89.5C76 91.7782 77.8468 93.625 80.125 93.625Z" fill="#1EC3EA" stroke="#1EC3EA" stroke-width="2"/>
</svg>
