<svg width="50" height="50" viewBox="0 0 50 50" fill="none" xmlns="http://www.w3.org/2000/svg">
<path d="M31.6145 45.8333V43.7312C31.6232 43.1813 31.8476 42.6569 32.2391 42.2707C32.6307 41.8846 33.1583 41.6676 33.7083 41.6666H33.8645C36.8478 41.6416 39.4103 39.5708 40.0187 36.6916L40.0395 36.5833L41.1228 31.25L43.0812 30.2833C44.1333 29.7666 44.6562 29.5062 44.7687 29.0333C44.8833 28.5583 44.5312 28.0958 43.8291 27.1687L39.8541 21.9437C39.4583 21.4229 39.2603 21.1645 39.1562 20.8895C39.052 20.6145 39.0166 20.2229 38.952 19.4458C38.2353 10.8895 30.9687 4.16663 22.1083 4.16663C12.7749 4.16663 5.20825 11.6291 5.20825 20.8333C5.20825 26.5625 8.1395 31.6145 12.6041 34.6145M12.6041 34.6145V45.8333M12.6041 34.6145C13.9076 35.4959 15.3294 36.1882 16.827 36.6708" stroke="#1EC3EA" stroke-width="3" stroke-linecap="round" stroke-linejoin="round"/>
<path d="M29.1666 18.75L31.0833 20.402C31.8895 21.0958 32.2916 21.4437 32.2916 21.875C32.2916 22.3062 31.8895 22.6541 31.0833 23.3479L29.1666 25M14.5833 18.75L12.6666 20.402C11.8603 21.0958 11.4583 21.4437 11.4583 21.875C11.4583 22.3062 11.8603 22.6541 12.6666 23.3479L14.5833 25M23.9583 16.6666L19.7916 27.0833" stroke="#1EC3EA" stroke-width="1.5" stroke-linecap="round" stroke-linejoin="round"/>
</svg>
