<svg width="44" height="48" viewBox="0 0 44 48" fill="none" xmlns="http://www.w3.org/2000/svg">
<path d="M9.61667 41.6667C8.65694 41.6667 7.85625 41.3459 7.21458 40.7042C6.57292 40.0625 6.25139 39.2612 6.25 38.3V11.7C6.25 10.7403 6.57153 9.93962 7.21458 9.29796C7.85764 8.65629 8.65764 8.33476 9.61458 8.33337H40.3854C41.3437 8.33337 42.1437 8.6549 42.7854 9.29796C43.4271 9.94101 43.7486 10.7417 43.75 11.7V38.3021C43.75 39.2605 43.4285 40.0612 42.7854 40.7042C42.1424 41.3473 41.3424 41.6681 40.3854 41.6667H9.61667ZM9.61667 39.5834H40.3854C40.7049 39.5834 40.9986 39.45 41.2667 39.1834C41.5347 38.9167 41.6681 38.6223 41.6667 38.3V11.7C41.6667 11.3792 41.5333 11.0848 41.2667 10.8167C41 10.5487 40.7062 10.4153 40.3854 10.4167H9.61458C9.29514 10.4167 9.00139 10.55 8.73333 10.8167C8.46528 11.0834 8.33194 11.3778 8.33333 11.7V38.3021C8.33333 38.6216 8.46667 38.9153 8.73333 39.1834C9 39.4514 9.29375 39.5848 9.61458 39.5834M11.4583 34.375H19.7917V32.2917H11.4583V34.375ZM30.3125 29.7688L39.1417 20.9375L37.6562 19.45L30.3125 26.8459L27.3437 23.8792L25.9104 25.3646L30.3125 29.7688ZM11.4583 26.0417H19.7917V23.9584H11.4583V26.0417ZM11.4583 17.7084H19.7917V15.625H11.4583V17.7084Z" fill="#1EC3EA"/>
</svg>
