<svg xmlns="http://www.w3.org/2000/svg" xmlns:xlink="http://www.w3.org/1999/xlink" width="500" zoomAndPan="magnify" viewBox="0 0 375 374.999991" height="500" preserveAspectRatio="xMidYMid meet" version="1.0"><defs><g/><clipPath id="dec03a4ef6"><path d="M 50 299 L 343.785156 299 L 343.785156 354.636719 L 50 354.636719 Z M 50 299 " clip-rule="nonzero"/></clipPath></defs><path fill="#ffffff" d="M 151.113281 269.914062 C 129.976562 274.644531 66.566406 288.84375 66.566406 288.84375 L 330.960938 289.34375 C 330.960938 289.34375 273.75 276.457031 254.679688 272.160156 C 229.480469 266.484375 211.503906 244.175781 211.375 218.347656 C 211.234375 190.535156 215.894531 155.246094 234.476562 122.859375 C 234.566406 123.28125 234.65625 123.707031 234.753906 124.152344 C 233.945312 126.765625 232.867188 129.46875 231.660156 133.191406 C 233.0625 131.789062 234.746094 130.410156 236.714844 129.296875 C 236.714844 129.296875 231.4375 133.882812 229.3125 141.421875 C 228.984375 142.585938 228.726562 143.84375 228.433594 145.179688 C 229.5 143.757812 230.785156 142.34375 232.316406 141.085938 C 232.316406 141.085938 227.613281 146.730469 227.007812 154.789062 C 226.839844 157.019531 227.101562 159.011719 227.429688 160.78125 C 228.105469 158.195312 229.265625 155.152344 231.261719 152.386719 C 231.261719 152.386719 229.628906 156.308594 229.40625 161.773438 C 229.210938 166.523438 231.605469 171.023438 235.722656 173.398438 C 236.414062 173.800781 236.855469 173.96875 236.855469 173.96875 C 236.855469 173.96875 231.105469 171.320312 239.699219 149.335938 C 240.382812 147.59375 240.933594 145.90625 241.371094 144.277344 C 241.847656 146.542969 242.628906 149.015625 243.882812 151.480469 C 245.078125 153.839844 246.566406 155.699219 247.984375 157.292969 C 247.082031 154.257812 246.390625 150.464844 246.714844 146.433594 C 246.714844 146.433594 247.46875 151.414062 250.597656 157.089844 C 253.304688 162.003906 258.488281 165.089844 264.097656 164.988281 C 265.066406 164.96875 265.625 164.867188 265.625 164.867188 C 265.625 164.867188 258.175781 165.714844 253.390625 138.164062 C 252.703125 134.199219 251.691406 130.6875 250.46875 127.574219 C 250.363281 126.820312 250.285156 126.054688 250.246094 125.273438 C 250.246094 125.273438 252.261719 133.496094 259.316406 139.5625 C 261.269531 141.242188 263.296875 142.363281 265.160156 143.269531 C 263.222656 140.875 261.195312 137.71875 259.996094 133.976562 C 259.996094 133.976562 262.519531 138.171875 267.429688 142.113281 C 271.699219 145.542969 277.503906 146.398438 282.523438 144.210938 C 283.371094 143.839844 283.828125 143.546875 283.828125 143.546875 C 283.828125 143.546875 277.441406 147.066406 262.9375 124.070312 C 262.363281 123.160156 261.78125 122.296875 261.191406 121.464844 C 261.949219 122.011719 262.769531 122.539062 263.644531 123.027344 C 264.722656 123.628906 265.914062 124.183594 267.171875 124.792969 C 266.011719 123.394531 264.910156 121.785156 264.027344 119.960938 C 264.027344 119.960938 268.519531 125.980469 276.386719 128.492188 C 278.558594 129.183594 280.605469 129.398438 282.441406 129.492188 C 280.027344 128.207031 277.28125 126.332031 275.003906 123.691406 C 275.003906 123.691406 278.519531 126.242188 283.894531 127.761719 C 288.566406 129.085938 293.609375 127.769531 296.949219 124.242188 C 297.511719 123.652344 297.785156 123.253906 297.785156 123.253906 C 297.785156 123.253906 293.792969 128.339844 273.972656 114.582031 C 270.851562 112.410156 267.828125 110.808594 264.945312 109.636719 C 266.640625 109.683594 268.429688 109.609375 270.28125 109.363281 C 271.878906 109.148438 273.550781 108.800781 275.339844 108.453125 C 273.039062 107.902344 270.628906 107.078125 268.285156 105.863281 C 268.285156 105.863281 277.671875 108.640625 287.847656 105.117188 C 290.65625 104.144531 292.957031 102.773438 294.949219 101.4375 C 291.429688 101.980469 287.097656 102.164062 282.65625 101.1875 C 282.65625 101.1875 288.320312 101.109375 295.117188 98.5 C 301.03125 96.226562 305.265625 90.917969 306 84.628906 C 306.121094 83.570312 306.097656 82.945312 306.097656 82.945312 C 306.097656 82.945312 305.898438 91.371094 274.46875 92.480469 C 266.730469 92.75 260.308594 94.269531 255.027344 96.402344 C 255.144531 96.335938 255.261719 96.269531 255.382812 96.199219 C 253.351562 96.304688 251.132812 96.191406 248.878906 95.691406 C 248.878906 95.691406 256.023438 95.828125 262.800781 91.566406 C 263.847656 90.910156 264.902344 90.132812 266.039062 89.320312 C 264.257812 89.667969 262.3125 89.859375 260.292969 89.761719 C 260.292969 89.761719 267.726562 88.703125 273.707031 83.007812 C 275.355469 81.433594 276.523438 79.746094 277.488281 78.175781 C 275.207031 79.675781 272.242188 81.1875 268.832031 81.917969 C 268.832031 81.917969 272.757812 80.058594 276.667969 76.070312 C 280.070312 72.605469 281.335938 67.550781 279.847656 62.929688 C 279.597656 62.148438 279.378906 61.722656 279.378906 61.722656 C 279.378906 61.722656 281.921875 67.664062 260.34375 78.449219 C 257.988281 79.625 255.890625 80.894531 254.027344 82.210938 C 254.511719 81.402344 254.976562 80.554688 255.40625 79.65625 C 256.070312 78.273438 256.664062 76.757812 257.320312 75.152344 C 255.679688 76.695312 253.765625 78.1875 251.574219 79.421875 C 251.574219 79.421875 258.6875 73.390625 261.191406 63.445312 C 261.882812 60.699219 261.992188 58.152344 261.96875 55.867188 C 260.5625 58.953125 258.449219 62.503906 255.351562 65.53125 C 255.351562 65.53125 258.246094 60.976562 259.714844 54.199219 C 260.988281 48.304688 258.972656 42.160156 254.347656 38.289062 C 253.570312 37.640625 253.054688 37.332031 253.054688 37.332031 C 253.054688 37.332031 259.667969 41.890625 244.140625 67.507812 C 241.019531 72.65625 239.019531 77.535156 237.8125 82.050781 C 237.230469 80.046875 236.53125 77.984375 235.683594 75.863281 C 223.527344 45.359375 231.5 41.625 231.5 41.625 C 231.5 41.625 230.890625 41.863281 229.929688 42.425781 C 224.230469 45.777344 220.9375 52.054688 221.253906 58.660156 C 221.617188 66.253906 223.921875 71.699219 223.921875 71.699219 C 221.117188 67.863281 219.476562 63.648438 218.511719 60.054688 C 218.074219 62.519531 217.730469 65.296875 217.980469 68.390625 C 218.894531 79.589844 225.492188 87.402344 225.492188 87.402344 C 225.144531 87.121094 224.808594 86.828125 224.476562 86.535156 C 223.617188 85.609375 222.699219 84.6875 221.714844 83.773438 C 221.125 83.101562 220.570312 82.425781 220.054688 81.742188 C 220.105469 81.96875 220.152344 82.191406 220.203125 82.410156 C 217.714844 80.261719 214.859375 78.164062 211.5625 76.175781 C 184.625 59.941406 188.546875 52.480469 188.546875 52.480469 C 188.546875 52.480469 188.210938 53.027344 187.800781 54.03125 C 185.40625 59.875 186.535156 66.558594 190.582031 71.398438 C 195.261719 76.988281 200.175781 79.808594 200.175781 79.808594 C 195.816406 78.507812 192.121094 76.242188 189.308594 74.058594 C 190.402344 76.191406 191.746094 78.511719 193.730469 80.726562 C 200.914062 88.742188 210.46875 90.878906 210.46875 90.878906 C 207.828125 90.800781 205.320312 90.351562 203.042969 89.714844 C 204.4375 90.886719 205.730469 92.007812 207.023438 92.96875 C 207.371094 93.230469 207.726562 93.476562 208.078125 93.71875 C 205.464844 92.976562 202.5625 92.425781 199.347656 92.136719 C 175.316406 90 175.511719 83.53125 175.511719 83.53125 C 175.511719 83.53125 175.460938 84.050781 175.523438 84.921875 C 175.859375 89.726562 178.882812 93.929688 183.28125 95.898438 C 188.382812 98.175781 192.71875 98.46875 192.71875 98.46875 C 189.273438 99.039062 185.964844 98.714844 183.292969 98.15625 C 184.761719 99.261719 186.46875 100.40625 188.578125 101.269531 C 196.230469 104.382812 203.535156 102.644531 203.535156 102.644531 C 201.691406 103.476562 199.8125 104.007812 198.023438 104.335938 C 199.382812 104.675781 200.648438 105.015625 201.859375 105.242188 C 201.886719 105.246094 201.914062 105.253906 201.9375 105.253906 C 201.054688 105.546875 200.164062 105.855469 199.261719 106.1875 C 166.203125 118.410156 162.410156 109.753906 162.410156 109.753906 C 162.410156 109.753906 162.636719 110.382812 163.183594 111.378906 C 166.605469 117.628906 173.28125 121.371094 180.40625 121.210938 C 188.570312 121.027344 194.476562 118.699219 194.476562 118.699219 C 190.285156 121.605469 185.714844 123.25 181.835938 124.1875 C 184.46875 124.726562 187.4375 125.171875 190.765625 124.984375 C 202.8125 124.304688 211.367188 117.433594 211.367188 117.433594 C 209.453125 119.6875 207.304688 121.566406 205.15625 123.121094 C 206.128906 122.921875 207.078125 122.738281 207.996094 122.550781 C 191.457031 140.203125 186.421875 136.046875 186.421875 136.046875 C 186.421875 136.046875 186.78125 136.386719 187.472656 136.855469 C 191.585938 139.652344 196.914062 139.871094 201.300781 137.527344 C 206.347656 134.835938 209.304688 131.515625 209.304688 131.515625 C 207.601562 134.652344 205.265625 137.128906 203.132812 138.941406 C 204.949219 138.445312 206.945312 137.785156 208.96875 136.617188 C 216.292969 132.386719 219.472656 125.386719 219.472656 125.386719 C 218.988281 127.402344 218.238281 129.257812 217.378906 130.90625 C 218.507812 130.023438 219.578125 129.210938 220.523438 128.371094 C 222.222656 126.867188 223.664062 125.40625 224.859375 124.085938 C 212.269531 147.503906 191.214844 196.964844 195.976562 259.21875 C 196.003906 259.582031 195.757812 259.917969 195.402344 259.996094 C 195.050781 260.074219 194.691406 259.886719 194.558594 259.550781 C 177.445312 217.332031 147.988281 191.46875 132.183594 179.929688 C 133.421875 180.441406 134.867188 180.960938 136.503906 181.425781 C 137.414062 181.6875 138.402344 181.886719 139.449219 182.121094 C 138.335938 181.285156 137.226562 180.273438 136.246094 179.066406 C 136.246094 179.066406 140.664062 182.769531 146.984375 183.253906 C 148.730469 183.390625 150.296875 183.1875 151.683594 182.933594 C 149.65625 182.402344 147.273438 181.484375 145.105469 179.914062 C 145.105469 179.914062 148.179688 181.199219 152.464844 181.386719 C 156.203125 181.546875 159.753906 179.652344 161.617188 176.410156 C 161.917969 175.890625 162.042969 175.5625 162.042969 175.5625 C 162.042969 175.5625 159.984375 180.003906 143.085938 173.433594 C 143.769531 173.261719 144.46875 173.078125 145.191406 172.894531 C 143.234375 172.542969 141.171875 171.96875 139.144531 171.0625 C 139.144531 171.0625 147.15625 172.9375 155.519531 169.492188 C 157.832031 168.542969 159.695312 167.277344 161.300781 166.0625 C 158.375 166.6875 154.75 167.050781 150.976562 166.445312 C 150.976562 166.445312 155.722656 166.105469 161.300781 163.585938 C 166.144531 161.394531 169.441406 156.738281 169.753906 151.429688 C 169.808594 150.535156 169.753906 150.011719 169.753906 150.011719 C 169.753906 150.011719 169.996094 157.089844 143.6875 159.539062 C 142.96875 159.605469 142.265625 159.6875 141.574219 159.777344 C 141.59375 159.765625 141.609375 159.757812 141.625 159.742188 C 142.371094 159.195312 143.117188 158.558594 143.925781 157.886719 C 142.609375 158.246094 141.167969 158.496094 139.648438 158.53125 C 139.648438 158.53125 145.152344 157.339844 149.3125 152.753906 C 150.464844 151.488281 151.246094 150.160156 151.882812 148.9375 C 150.253906 150.179688 148.121094 151.46875 145.609375 152.203125 C 145.609375 152.203125 148.449219 150.597656 151.164062 147.398438 C 153.523438 144.613281 154.183594 140.738281 152.800781 137.363281 C 152.578125 136.824219 152.402344 136.53125 152.402344 136.53125 C 152.402344 136.53125 154.628906 140.835938 139.078125 150.070312 C 136.996094 151.308594 135.214844 152.617188 133.6875 153.96875 C 133.847656 153.691406 134.007812 153.410156 134.160156 153.117188 C 134.71875 152.050781 135.230469 150.875 135.796875 149.628906 C 134.457031 150.800781 132.910156 151.914062 131.152344 152.824219 C 131.152344 152.824219 136.921875 148.285156 139.175781 140.535156 C 139.800781 138.394531 139.957031 136.394531 140.003906 134.597656 C 138.808594 136.984375 137.046875 139.714844 134.523438 142.007812 C 134.523438 142.007812 136.929688 138.507812 138.277344 133.222656 C 139.445312 128.660156 138.0625 123.792969 134.585938 120.613281 C 133.953125 120.035156 133.527344 119.761719 133.527344 119.761719 C 133.527344 119.761719 138.597656 123.539062 125.648438 143.238281 C 124.0625 145.652344 122.8125 147.992188 121.828125 150.253906 C 121.789062 150.085938 121.75 149.921875 121.714844 149.753906 C 121.585938 150.382812 121.429688 151.019531 121.246094 151.664062 C 120.878906 152.601562 120.554688 153.523438 120.277344 154.425781 C 120.148438 154.730469 120.011719 155.035156 119.867188 155.339844 C 119.867188 155.339844 121.800781 147.921875 118.785156 140.054688 C 117.953125 137.882812 116.820312 136.117188 115.726562 134.59375 C 116.238281 137.332031 116.496094 140.71875 115.84375 144.214844 C 115.84375 144.214844 115.636719 139.789062 113.421875 134.535156 C 111.496094 129.972656 107.234375 126.792969 102.296875 126.378906 C 101.464844 126.304688 100.976562 126.34375 100.976562 126.34375 C 100.976562 126.34375 107.574219 126.285156 109.242188 150.84375 C 109.355469 152.550781 109.550781 154.171875 109.804688 155.714844 C 107.527344 153.054688 104.59375 150.40625 100.816406 147.933594 C 82.023438 135.648438 85.011719 130.425781 85.011719 130.425781 C 85.011719 130.425781 84.777344 130.78125 84.476562 131.4375 C 82.574219 135.5625 83.195312 140.40625 85.980469 143.988281 C 89.167969 148.09375 92.597656 150.230469 92.597656 150.230469 C 89.523438 149.191406 86.945312 147.476562 84.996094 145.84375 C 85.71875 147.394531 86.617188 149.085938 87.976562 150.714844 C 92.890625 156.625 99.652344 158.398438 99.652344 158.398438 C 97.773438 158.273438 95.996094 157.886719 94.386719 157.375 C 95.351562 158.246094 96.242188 159.082031 97.140625 159.800781 C 97.71875 160.265625 98.308594 160.691406 98.898438 161.078125 C 97.210938 160.792969 95.382812 160.613281 93.410156 160.582031 C 75.328125 160.285156 75.121094 155.441406 75.121094 155.441406 C 75.121094 155.441406 75.113281 155.785156 75.191406 156.363281 C 75.667969 159.984375 78.167969 163.019531 81.601562 164.265625 C 85.539062 165.695312 88.796875 165.679688 88.796875 165.679688 C 86.253906 166.289062 83.761719 166.226562 81.730469 165.953125 C 82.890625 166.703125 84.226562 167.464844 85.855469 167.992188 C 91.742188 169.90625 97.109375 168.210938 97.109375 168.210938 C 95.777344 168.933594 94.398438 169.433594 93.082031 169.773438 C 94.113281 169.957031 95.082031 170.140625 96 170.246094 C 101.960938 170.929688 106.746094 168.523438 106.746094 168.523438 C 105.386719 169.59375 103.917969 170.386719 102.515625 170.972656 C 102.617188 170.980469 102.71875 170.988281 102.820312 170.996094 C 98.558594 171.265625 93.730469 172.320312 88.40625 174.644531 C 66.804688 184.082031 63.9375 178.445312 63.9375 178.445312 C 63.9375 178.445312 64.136719 178.914062 64.597656 179.632812 C 67.144531 183.59375 71.707031 185.78125 76.402344 185.402344 C 81.84375 184.964844 85.695312 183.183594 85.695312 183.183594 C 83.007812 185.28125 80.019531 186.5625 77.464844 187.335938 C 79.246094 187.59375 81.246094 187.773438 83.457031 187.523438 C 91.476562 186.605469 96.925781 181.6875 96.925781 181.6875 C 95.734375 183.265625 94.371094 184.605469 92.992188 185.722656 C 94.316406 185.378906 95.5625 185.074219 96.710938 184.699219 C 98.042969 184.265625 99.277344 183.734375 100.402344 183.15625 C 98.835938 184.878906 97.3125 186.945312 95.902344 189.421875 C 86.96875 205.144531 82.617188 203 82.617188 203 C 82.617188 203 82.929688 203.179688 83.503906 203.402344 C 86.902344 204.699219 90.738281 203.957031 93.46875 201.546875 C 96.609375 198.78125 98.160156 195.914062 98.160156 195.914062 C 97.476562 198.441406 96.226562 200.597656 95.011719 202.246094 C 96.222656 201.589844 97.535156 200.78125 98.78125 199.609375 C 103.285156 195.363281 104.371094 189.835938 104.371094 189.835938 C 104.367188 191.355469 104.144531 192.800781 103.8125 194.121094 C 104.464844 193.300781 105.089844 192.542969 105.625 191.789062 C 106.054688 191.171875 106.4375 190.550781 106.773438 189.933594 C 106.644531 190.6875 106.53125 191.460938 106.441406 192.261719 C 104.085938 212.507812 98.628906 212.199219 98.628906 212.199219 C 98.628906 212.199219 99.03125 212.246094 99.722656 212.222656 C 103.824219 212.074219 107.476562 209.613281 109.25 205.914062 C 111.292969 201.660156 111.636719 198.003906 111.636719 198.003906 C 112.039062 200.925781 111.691406 203.714844 111.15625 205.957031 C 112.125 204.742188 113.132812 203.328125 113.90625 201.5625 C 116.710938 195.171875 115.410156 188.960938 115.410156 188.960938 C 115.636719 189.503906 115.832031 190.046875 116 190.589844 C 116.183594 193.089844 116.640625 195.792969 117.460938 198.695312 C 123.152344 218.871094 117.84375 220.710938 117.84375 220.710938 C 117.84375 220.710938 118.246094 220.601562 118.894531 220.304688 C 122.734375 218.558594 125.242188 214.789062 125.480469 210.578125 C 125.753906 205.730469 124.652344 202.121094 124.652344 202.121094 C 126.175781 204.742188 126.9375 207.527344 127.3125 209.871094 C 127.753906 208.335938 128.15625 206.597656 128.203125 204.617188 C 128.25 202.542969 127.976562 200.621094 127.566406 198.933594 C 128.390625 199.890625 129.308594 200.851562 130.332031 201.8125 C 143.269531 213.890625 140.238281 217.542969 140.238281 217.542969 C 140.238281 217.542969 140.46875 217.296875 140.792969 216.824219 C 142.824219 213.886719 143 210.046875 141.328125 206.890625 C 139.40625 203.265625 137.027344 201.136719 137.027344 201.136719 C 139.273438 202.363281 141.042969 204.042969 142.335938 205.574219 C 141.984375 204.269531 141.515625 202.835938 140.679688 201.386719 C 137.664062 196.136719 132.652344 193.84375 132.652344 193.84375 C 134.09375 194.195312 135.421875 194.734375 136.601562 195.351562 C 135.972656 194.542969 135.390625 193.773438 134.792969 193.097656 C 130.910156 188.6875 125.855469 187.292969 125.855469 187.292969 C 127.550781 187.414062 129.132812 187.796875 130.539062 188.292969 C 128.515625 186.167969 126.910156 184.6875 125.519531 183.183594 C 125.441406 182.851562 125.363281 182.535156 125.285156 182.222656 C 145.589844 196.199219 159.324219 215.199219 168.40625 232.40625 C 176.402344 247.558594 167.832031 266.167969 151.113281 269.914062 " fill-opacity="1" fill-rule="nonzero"/><path fill="#f68712" d="M 279.21875 154.292969 C 278.398438 154.378906 277.574219 154.421875 276.746094 154.421875 C 273.945312 154.421875 271.171875 153.917969 268.5625 152.957031 C 270.019531 158.199219 271.113281 163.609375 271.8125 169.167969 C 276.035156 202.882812 264.777344 234.964844 243.585938 258.28125 C 269.949219 232.726562 284.402344 195.527344 279.484375 156.296875 C 279.402344 155.625 279.308594 154.957031 279.21875 154.292969 " fill-opacity="1" fill-rule="nonzero"/><path fill="#f68712" d="M 49.964844 196.960938 C 42.289062 135.699219 85.730469 79.816406 146.992188 72.140625 C 158.558594 70.691406 169.933594 71.066406 180.828125 73.035156 C 177.242188 66.585938 176.527344 58.914062 178.980469 51.894531 C 167.804688 50.066406 156.183594 49.792969 144.375 51.269531 C 78.066406 59.578125 31.042969 120.066406 39.351562 186.378906 C 44.265625 225.613281 67.453125 258.09375 99.300781 276.359375 C 73.015625 258.992188 54.1875 230.671875 49.964844 196.960938 " fill-opacity="1" fill-rule="nonzero"/><path fill="#ffffff" d="M 109.113281 102.804688 C 109.113281 102.804688 121.539062 94.234375 137.566406 102.804688 C 137.566406 102.804688 142.984375 84.851562 159.714844 82.402344 C 159.714844 82.402344 148.289062 92.195312 141.351562 107.703125 C 141.351562 107.703125 125.84375 101.171875 109.113281 102.804688 " fill-opacity="1" fill-rule="nonzero"/><path fill="#ffffff" d="M 106.320312 44.960938 C 106.320312 44.960938 97.644531 37.945312 85.128906 45.332031 C 85.128906 45.332031 81.75 27.808594 63.9375 36.570312 C 63.9375 36.570312 78.371094 33.214844 83.503906 49.082031 C 83.503906 49.082031 97.398438 42.253906 106.320312 44.960938 " fill-opacity="1" fill-rule="nonzero"/><path fill="#ffffff" d="M 135.722656 21.585938 C 135.722656 21.585938 146.574219 20.902344 153.289062 32.140625 C 153.289062 32.140625 163.296875 23.066406 174.535156 27.761719 C 174.535156 27.761719 163.847656 29.570312 153.808594 36.570312 C 153.808594 36.570312 146.660156 26.785156 135.722656 21.585938 " fill-opacity="1" fill-rule="nonzero"/><g clip-path="url(#dec03a4ef6)"><path fill="#00adef" d="M 343.976562 299.121094 L 50.917969 299.121094 L 212 308.527344 L 120.046875 325.589844 L 204.570312 344.128906 L 180.828125 354.683594 L 238.511719 341.128906 L 180.828125 326.902344 L 343.976562 299.121094 " fill-opacity="1" fill-rule="nonzero"/></g><g fill="#000000" fill-opacity="1"><g transform="translate(0.0000045, 5.625)"><g><path d="M 2.109375 0.078125 C 1.804688 0.078125 1.566406 -0.00390625 1.390625 -0.171875 C 1.222656 -0.335938 1.140625 -0.5625 1.140625 -0.84375 C 1.140625 -1.113281 1.222656 -1.332031 1.390625 -1.5 C 1.566406 -1.675781 1.804688 -1.765625 2.109375 -1.765625 C 2.410156 -1.765625 2.644531 -1.679688 2.8125 -1.515625 C 2.988281 -1.347656 3.078125 -1.128906 3.078125 -0.859375 C 3.078125 -0.578125 2.988281 -0.347656 2.8125 -0.171875 C 2.632812 -0.00390625 2.398438 0.078125 2.109375 0.078125 Z M 2.109375 0.078125 "/></g></g></g></svg>