<svg width="106" height="106" viewBox="0 0 106 106" fill="none" xmlns="http://www.w3.org/2000/svg">
<path d="M53 99.9697H10.5C8.51088 99.9697 6.60322 99.0119 5.1967 97.307C3.79018 95.6022 3 93.2898 3 90.8788V12.0909C3 9.67985 3.79018 7.36754 5.1967 5.66266C6.60322 3.95779 8.51088 3 10.5 3H95.5C97.4891 3 99.3968 3.95779 100.803 5.66266C102.21 7.36754 103 9.67985 103 12.0909V48.6333" stroke="#1EC3EA" stroke-width="6" stroke-linecap="round" stroke-linejoin="round"/>
<path d="M3 12.0909C3 9.67985 3.79018 7.36754 5.1967 5.66266C6.60322 3.95779 8.51088 3 10.5 3H95.5C97.4891 3 99.3968 3.95779 100.803 5.66266C102.21 7.36754 103 9.67985 103 12.0909V39.3636H3V12.0909Z" stroke="#1EC3EA" stroke-width="6"/>
<path d="M18.0005 18.1213C17.4101 18.1213 16.0005 18.9258 16.0005 21.1819C16.0005 23.438 17.4101 24.2425 18.0005 24.2425C18.5909 24.2425 20.0005 23.438 20.0005 21.1819C20.0005 18.9258 18.5909 18.1213 18.0005 18.1213Z" fill="#1EC3EA" stroke="#1EC3EA" stroke-width="6"/>
<path d="M33.0002 18.1213C32.4098 18.1213 31.0002 18.9258 31.0002 21.1819C31.0002 23.438 32.4098 24.2425 33.0002 24.2425C33.5907 24.2425 35.0002 23.438 35.0002 21.1819C35.0002 18.9258 33.5907 18.1213 33.0002 18.1213Z" fill="#1EC3EA" stroke="#1EC3EA" stroke-width="6"/>
<path d="M85.5002 90.8788C89.6424 90.8788 93.0002 86.8087 93.0002 81.7879C93.0002 76.7672 89.6424 72.697 85.5002 72.697C81.3581 72.697 78.0002 76.7672 78.0002 81.7879C78.0002 86.8087 81.3581 90.8788 85.5002 90.8788Z" stroke="#1EC3EA" stroke-width="6"/>
<path d="M85.5005 103V90.8788M85.5005 72.697V60.5757M70.3455 92.3939L79.0055 86.3333M91.9955 77.2424L100.655 71.1818M70.3455 71.1818L79.0055 77.2424M91.9955 86.3333L100.655 92.3939" stroke="#1EC3EA" stroke-width="6" stroke-linecap="round" stroke-linejoin="round"/>
</svg>
