<svg width="48" height="48" viewBox="0 0 48 48" fill="none" xmlns="http://www.w3.org/2000/svg">
<g clip-path="url(#clip0_94_47)">
<path d="M44.5372 35.9325C44.871 35.3539 45.0776 34.7025 45.0776 34.1164V13.7925C45.0776 13.2083 44.8714 12.5562 44.5372 11.9775L23.7922 23.955L44.5372 35.9325Z" fill="#00599C"/>
<path d="M25.6349 47.4697L43.2348 37.3095C43.7418 37.0166 44.203 36.5111 44.5372 35.9325L23.7922 23.955L3.04492 35.9325C3.37867 36.5111 3.8403 37.0162 4.3473 37.3095L21.9472 47.4697C22.9608 48.0555 24.6209 48.0555 25.6342 47.4697H25.6349Z" fill="#004482"/>
<path d="M44.5371 11.9778C44.203 11.3981 43.7418 10.8926 43.2348 10.6012L25.6345 0.439472C24.6209 -0.146653 22.9611 -0.146653 21.9475 0.439472L4.34763 10.6012C3.33363 11.1855 2.50488 12.6225 2.50488 13.7925V34.116C2.50488 34.7017 2.71113 35.3535 3.04526 35.9321L23.7918 23.955L44.5371 11.9778Z" fill="#659AD2"/>
<path d="M23.792 9.76307C15.9668 9.76307 9.60083 16.1294 9.60083 23.9546C9.60083 31.7797 15.9668 38.1461 23.792 38.1461C28.8413 38.1461 33.551 35.4284 36.0807 31.0548L29.9401 27.5006C28.6726 29.6906 26.3176 31.0499 23.792 31.0499C19.8796 31.0499 16.6962 27.8669 16.6962 23.9542C16.6962 20.0414 19.88 16.8584 23.792 16.8584C26.3157 16.8584 28.6733 18.2193 29.9382 20.4078L36.0807 16.8539C33.5495 12.4799 28.8413 9.76307 23.792 9.76307ZM34.8301 21.5887V23.1663H33.2525V24.7424H34.8301V26.3201H36.4062V24.7424H37.9823V23.1663H36.4062V21.5887H34.8301ZM40.7423 21.5887V23.1663H39.1658V24.7424H40.7423V26.3201H42.32V24.7424H43.8961V23.1663H42.32V21.5887H40.7423Z" fill="white"/>
</g>
<defs>
<clipPath id="clip0_94_47">
<rect width="48" height="48" fill="white"/>
</clipPath>
</defs>
</svg>
