<svg width="48" height="48" viewBox="0 0 48 48" fill="none" xmlns="http://www.w3.org/2000/svg">
<g clip-path="url(#clip0_171_29)">
<path d="M36.75 0H11.25C5.0368 0 0 5.0368 0 11.25V36.75C0 42.9632 5.0368 48 11.25 48H36.75C42.9632 48 48 42.9632 48 36.75V11.25C48 5.0368 42.9632 0 36.75 0Z" fill="#FBFBFB"/>
<mask id="mask0_171_29" style="mask-type:luminance" maskUnits="userSpaceOnUse" x="7" y="7" width="34" height="34">
<path d="M7.125 7.125H40.875V40.875H7.125V7.125Z" fill="white"/>
</mask>
<g mask="url(#mask0_171_29)">
<path fill-rule="evenodd" clip-rule="evenodd" d="M38.2127 33.4144C36.3771 33.3634 34.953 33.5515 33.7596 34.0536C33.4159 34.1916 32.8644 34.1916 32.8191 34.6242C33.0028 34.8057 33.0249 35.1027 33.186 35.3543C33.4611 35.8108 33.9437 36.4258 34.3794 36.745L35.8483 37.7946C36.7434 38.3415 37.7533 38.6612 38.6254 39.2087C39.1305 39.5282 39.6353 39.9388 40.1404 40.2814C40.3976 40.4638 40.5534 40.761 40.875 40.8745V40.8055C40.7145 40.6009 40.6682 40.3045 40.5083 40.0753L39.8188 39.4142C39.1538 38.5247 38.3269 37.7485 37.4318 37.1104C36.6971 36.6085 35.091 35.9243 34.7925 35.0807L34.7473 35.0295C35.2515 34.9785 35.8483 34.801 36.3308 34.6641C37.1117 34.4595 37.8227 34.5045 38.6254 34.2994L39.7279 33.9799V33.7753C39.3146 33.3649 39.0163 32.8172 38.5806 32.4298C37.4102 31.4262 36.1239 30.445 34.7925 29.6239C34.0811 29.1679 33.1628 28.8707 32.4054 28.4837C32.1293 28.3466 31.6708 28.2782 31.5103 28.0502C31.0961 27.5492 30.8672 26.887 30.5689 26.2935L28.6869 22.3245C28.2739 21.4348 28.0208 20.5452 27.5166 19.7241C25.152 15.846 22.5808 13.4968 18.6328 11.1925C17.784 10.7134 16.7741 10.5073 15.7003 10.2568L13.9791 10.165C13.6112 10.0054 13.2443 9.57171 12.9229 9.36621C11.6145 8.54496 8.24026 6.76596 7.27539 9.11065C6.6557 10.5932 8.19395 12.0529 8.71614 12.8061C9.10707 13.3307 9.61126 13.9236 9.88745 14.5168C10.0418 14.9044 10.0933 15.3154 10.2544 15.726C10.6211 16.7295 10.9658 17.8478 11.4478 18.7834C11.7051 19.2625 11.9753 19.765 12.2966 20.1981C12.4804 20.4537 12.8019 20.5632 12.8704 20.9736C12.5488 21.4302 12.5267 22.1138 12.3429 22.6849C11.5163 25.2627 11.8378 28.4562 13.0082 30.354C13.3761 30.924 14.2429 32.1792 15.4191 31.6997C16.452 31.2891 16.2216 29.989 16.5199 28.8482C16.5893 28.5748 16.5431 28.3922 16.6804 28.2092V28.2604L17.6218 30.1536C18.3334 31.2713 19.5733 32.4349 20.6057 33.211C21.1562 33.6216 21.5925 34.3292 22.2808 34.5797V34.5107H22.2356C22.0976 34.3062 21.8908 34.2141 21.7073 34.0545C21.2942 33.6441 20.8352 33.142 20.5136 32.686C19.5501 31.4087 18.7013 29.994 17.9434 28.5343C17.5757 27.8273 17.2541 27.0516 16.9568 26.3445C16.8178 26.0706 16.8178 25.6594 16.5889 25.5235C16.2441 26.0245 15.7401 26.4591 15.4864 27.0746C15.0501 28.0553 15.0049 29.2645 14.8444 30.5192C14.7518 30.5421 14.7928 30.5192 14.7518 30.5702C14.0181 30.3883 13.7649 29.6346 13.4899 28.9965C12.8014 27.3769 12.6861 24.7765 13.2829 22.9058C13.4434 22.4267 14.1328 20.9211 13.8576 20.4649C13.7188 20.0314 13.2608 19.7809 13.0076 19.4383C12.7093 19.0048 12.3889 18.4577 12.1821 17.9787C11.6316 16.7005 11.3563 15.2867 10.7589 14.0093C10.4828 13.416 10.0013 12.7999 9.6107 12.253C9.17439 11.6368 8.69345 11.2032 8.34882 10.4736C8.23407 10.218 8.07357 9.81209 8.25714 9.53796C8.30251 9.35553 8.39495 9.2824 8.57776 9.24153C8.87589 8.98578 9.72601 9.30996 10.0243 9.4459C10.8731 9.78846 11.5847 10.1076 12.2963 10.5861C12.6178 10.8141 12.9624 11.2478 13.3755 11.3623H13.8581C14.5928 11.5217 15.4185 11.4133 16.1063 11.6179C17.3231 12.0064 18.4245 12.576 19.4123 13.1925C22.4188 15.0859 24.8985 17.7777 26.5734 20.9946C26.8487 21.5192 26.9634 21.9983 27.2166 22.5458C27.6992 23.664 28.296 24.8042 28.7769 25.8998C29.2596 26.9719 29.7184 28.0677 30.4069 28.9572C30.7515 29.4362 32.1281 29.6867 32.7476 29.9378C33.207 30.1423 33.918 30.3265 34.3322 30.577C35.112 31.056 35.8926 31.6035 36.6266 32.1282C36.9934 32.4012 38.1418 32.9717 38.2101 33.4268L38.2127 33.4144ZM14.8046 13.5913C14.4876 13.5886 14.1715 13.6269 13.8643 13.7053V13.7565H13.9095C14.0933 14.1216 14.4148 14.3727 14.6441 14.6922L15.1725 15.7872L15.2179 15.7362C15.5393 15.5082 15.7003 15.1431 15.7003 14.5962C15.5625 14.4366 15.5398 14.2765 15.4251 14.1169C15.2873 13.8889 14.9889 13.7743 14.8046 13.5925V13.5913Z" fill="#00758F"/>
</g>
</g>
<defs>
<clipPath id="clip0_171_29">
<rect width="48" height="48" fill="white"/>
</clipPath>
</defs>
</svg>
