<svg width="48" height="48" viewBox="0 0 48 48" fill="none" xmlns="http://www.w3.org/2000/svg">
<g clip-path="url(#clip0_94_60)">
<mask id="mask0_94_60" style="mask-type:luminance" maskUnits="userSpaceOnUse" x="0" y="0" width="48" height="48">
<path d="M24 48C37.2548 48 48 37.2548 48 24C48 10.7452 37.2548 0 24 0C10.7452 0 0 10.7452 0 24C0 37.2548 10.7452 48 24 48Z" fill="white"/>
</mask>
<g mask="url(#mask0_94_60)">
<path d="M24 48C37.2548 48 48 37.2548 48 24C48 10.7452 37.2548 0 24 0C10.7452 0 0 10.7452 0 24C0 37.2548 10.7452 48 24 48Z" fill="black"/>
<path d="M39.8688 42.0053L18.4377 14.4H14.3999V33.592H17.6302V18.5025L37.333 43.9586C38.2208 43.3647 39.0679 42.7121 39.8688 42.0053Z" fill="url(#paint0_linear_94_60)"/>
<path d="M30.6667 14.4H33.8668V33.6H30.6667V14.4Z" fill="url(#paint1_linear_94_60)"/>
</g>
</g>
<defs>
<linearGradient id="paint0_linear_94_60" x1="1431.31" y1="1681.06" x2="2281.82" y2="2735.23" gradientUnits="userSpaceOnUse">
<stop stop-color="white"/>
<stop offset="1" stop-color="white" stop-opacity="0"/>
</linearGradient>
<linearGradient id="paint1_linear_94_60" x1="190.67" y1="14.4" x2="185.256" y2="1424.39" gradientUnits="userSpaceOnUse">
<stop stop-color="white"/>
<stop offset="1" stop-color="white" stop-opacity="0"/>
</linearGradient>
<clipPath id="clip0_94_60">
<rect width="48" height="48" fill="white"/>
</clipPath>
</defs>
</svg>
