<svg width="52" height="51" viewBox="0 0 52 51" fill="none" xmlns="http://www.w3.org/2000/svg">
<path d="M37.75 0H12.25C6.0368 0 1 5.0368 1 11.25V36.75C1 42.9632 6.0368 48 12.25 48H37.75C43.9632 48 49 42.9632 49 36.75V11.25C49 5.0368 43.9632 0 37.75 0Z" fill="white"/>
<path d="M24.3819 6.19892C25.3618 5.63812 26.638 5.63553 27.617 6.19892C32.5421 8.982 37.4688 11.7605 42.393 14.5452C43.3194 15.0669 43.9388 16.0977 43.9294 17.1649V33.9082C43.9364 35.0197 43.2557 36.0752 42.2785 36.585C37.3695 39.3527 32.463 42.1236 27.5548 44.8914C26.5549 45.4631 25.2531 45.4191 24.2841 44.8003C22.8124 43.9473 21.3382 43.0982 19.8664 42.246C19.5656 42.0667 19.2265 41.924 19.0141 41.6324C19.202 41.3793 19.5377 41.3479 19.8104 41.2373C20.4246 41.0419 20.989 40.7283 21.5532 40.4241C21.696 40.3265 21.8701 40.3639 22.007 40.4512C23.2654 41.1728 24.513 41.9154 25.7756 42.63C26.0449 42.7856 26.3177 42.579 26.548 42.4507C31.3651 39.728 36.1882 37.0159 41.0047 34.2923C41.1832 34.2065 41.2818 34.017 41.2673 33.8216C41.2706 28.2982 41.2681 22.7741 41.269 17.2506C41.2894 17.029 41.1611 16.825 40.9605 16.7342C36.0686 13.9792 31.179 11.2202 26.288 8.46463C26.2033 8.40641 26.1029 8.37516 26.0001 8.37498C25.8973 8.37481 25.7968 8.40571 25.7119 8.46364C20.8206 11.2202 15.9322 13.982 11.041 16.7366C10.8412 16.8276 10.7071 17.0282 10.7308 17.2506C10.7318 22.7741 10.7308 28.2982 10.7308 33.8224C10.7223 33.9178 10.7432 34.0136 10.7908 34.0967C10.8384 34.1799 10.9103 34.2464 10.997 34.2874C12.302 35.0275 13.6089 35.7624 14.915 36.5001C15.6509 36.8959 16.5542 37.1314 17.365 36.828C18.0802 36.5714 18.5816 35.8413 18.5681 35.0818C18.5748 29.5908 18.5647 24.0989 18.5731 18.6085C18.5551 18.3648 18.7864 18.1634 19.0235 18.1865C19.6506 18.1821 20.2786 18.1779 20.9057 18.1881C21.1675 18.1821 21.3476 18.4447 21.3153 18.6901C21.3127 24.2161 21.3221 29.742 21.3111 35.2677C21.3127 36.7405 20.7077 38.3431 19.3454 39.0636C17.6674 39.9328 15.5931 39.7485 13.9352 38.915C12.5001 38.1986 11.1302 37.3531 9.72056 36.5857C8.74081 36.0787 8.06346 35.0191 8.07044 33.9084V17.1649C8.06008 16.0756 8.70435 15.0261 9.65921 14.5119C14.5674 11.7422 19.4747 8.97005 24.3819 6.19892Z" fill="#81CD39"/>
<path d="M28.6641 17.7972C30.8047 17.6593 33.0963 17.7155 35.0225 18.7702C36.5141 19.5782 37.3408 21.2743 37.3671 22.9312C37.3255 23.1546 37.0918 23.2779 36.8785 23.2625C36.2575 23.2617 35.6361 23.2711 35.0152 23.2584C34.7516 23.2685 34.5986 23.0257 34.5655 22.7928C34.387 21.9999 33.9545 21.2148 33.2084 20.8323C32.0629 20.2589 30.7349 20.2878 29.4858 20.2998C28.574 20.348 27.5935 20.4271 26.8209 20.9632C26.2278 21.3694 26.0477 22.1893 26.2593 22.8498C26.4589 23.3239 27.0062 23.4769 27.4542 23.6179C30.0339 24.2927 32.7676 24.2254 35.298 25.1133C36.3457 25.4753 37.3705 26.1791 37.7291 27.276C38.1983 28.7462 37.9927 30.5033 36.9466 31.6835C36.0983 32.6547 34.863 33.1834 33.6308 33.4705C31.9916 33.8361 30.2905 33.8454 28.6258 33.6831C27.0606 33.5046 25.4315 33.0934 24.2233 32.027C23.1899 31.1297 22.6853 29.7316 22.7353 28.3825C22.7473 28.1545 22.9742 27.9956 23.1925 28.0143C23.8179 28.0093 24.4434 28.0075 25.0688 28.0153C25.3188 27.9974 25.5039 28.2133 25.5168 28.4488C25.632 29.204 25.9158 29.9969 26.5747 30.4446C27.8457 31.2648 29.4408 31.2086 30.8963 31.2315C32.1022 31.1781 33.4559 31.162 34.4398 30.3649C34.959 29.9103 35.1128 29.1496 34.9725 28.4954C34.8205 27.943 34.2426 27.6856 33.7463 27.5173C31.1997 26.7118 28.4354 27.0041 25.9135 26.093C24.8895 25.7313 23.8994 25.0471 23.5061 23.9953C22.9572 22.5065 23.2087 20.6649 24.3643 19.5248C25.4911 18.3902 27.1175 17.9534 28.6641 17.7972Z" fill="#81CD39"/>
</svg>
