<svg width="48" height="48" viewBox="0 0 48 48" fill="none" xmlns="http://www.w3.org/2000/svg">
<g clip-path="url(#clip0_171_37)">
<path d="M36.75 0H11.25C5.0368 0 0 5.0368 0 11.25V36.75C0 42.9632 5.0368 48 11.25 48H36.75C42.9632 48 48 42.9632 48 36.75V11.25C48 5.0368 42.9632 0 36.75 0Z" fill="#777BB3"/>
<path d="M9.21713 18.7961H14.5436C16.107 18.8094 17.2399 19.2599 17.9423 20.1476C18.6445 21.0353 18.8764 22.2476 18.6379 23.7847C18.5451 24.487 18.3397 25.176 18.0217 25.8518C17.717 26.5275 17.293 27.137 16.7498 27.6803C16.0872 28.3691 15.3784 28.8064 14.6231 28.992C13.8678 29.1775 13.086 29.2703 12.2779 29.2703H9.89288L9.13763 33.0465H6.375L9.21713 18.7961ZM11.5425 21.0619L10.35 27.0244C10.4295 27.0376 10.509 27.0442 10.5885 27.0442H10.8668C12.1389 27.0575 13.1989 26.9316 14.0468 26.6666C14.8947 26.3884 15.4645 25.4211 15.756 23.7649C15.9945 22.3736 15.756 21.572 15.0405 21.36C14.3383 21.1481 13.4571 21.0488 12.3971 21.0619C12.2382 21.0751 12.0859 21.0817 11.94 21.0817H11.5226L11.5425 21.0619ZM21.7849 15H24.5276L23.7525 18.7961H26.217C27.5684 18.8228 28.5754 19.101 29.238 19.6309C29.9138 20.1609 30.1125 21.1679 29.8342 22.6519L28.5026 29.2703H25.7201L26.9921 22.95C27.1245 22.2875 27.0848 21.8171 26.8729 21.5389C26.661 21.2606 26.2039 21.1215 25.5015 21.1215L23.2954 21.1016L21.6656 29.2703H18.9229L21.7849 15ZM32.7795 18.7961H38.106C39.6694 18.8094 40.8022 19.2599 41.5046 20.1476C42.2069 21.0353 42.4387 22.2476 42.2002 23.7847C42.1075 24.487 41.9021 25.176 41.5841 25.8518C41.2794 26.5275 40.8554 27.137 40.3121 27.6803C39.6496 28.3691 38.9408 28.8064 38.1855 28.992C37.4301 29.1775 36.6484 29.2703 35.8402 29.2703H33.4552L32.7 33.0465H29.9374L32.7795 18.7961ZM35.1049 21.0619L33.9124 27.0244C33.9919 27.0376 34.0714 27.0442 34.1509 27.0442H34.4291C35.7012 27.0575 36.7612 26.9316 37.6091 26.6666C38.4571 26.3884 39.0269 25.4211 39.3184 23.7649C39.5569 22.3736 39.3184 21.572 38.6029 21.36C37.9006 21.1481 37.0195 21.0488 35.9595 21.0619C35.8005 21.0751 35.6481 21.0817 35.5024 21.0817H35.085L35.1049 21.0619Z" fill="black"/>
</g>
<defs>
<clipPath id="clip0_171_37">
<rect width="48" height="48" fill="white"/>
</clipPath>
</defs>
</svg>
