<svg width="48" height="48" viewBox="0 0 48 48" fill="none" xmlns="http://www.w3.org/2000/svg">
<path d="M23.9967 48.0001L43.385 36.8044L35.9536 32.5066L28.3561 36.8956C28.2914 36.9312 28.2186 36.9496 28.1447 36.949C28.0708 36.9484 27.9984 36.9288 27.9342 36.8922C27.8703 36.8547 27.8171 36.8013 27.7798 36.7373C27.7425 36.6732 27.7223 36.6007 27.7212 36.5266V26.1031C27.7212 25.7959 27.8802 25.5181 28.1461 25.3651L37.1738 20.1514C37.2382 20.1148 37.311 20.0958 37.385 20.0964C37.4591 20.097 37.5316 20.1171 37.5953 20.1548C37.7273 20.2279 37.8098 20.3663 37.8113 20.5171V29.2913L45.2476 33.5866V11.1957L23.9963 23.4623L23.9967 48.0001Z" fill="black"/>
<path d="M19.6488 36.9003L12.0476 32.5061L4.61057 36.8036L23.9966 47.9999V23.4622L2.75244 11.1952V33.5849L10.1868 29.2912V20.5177C10.1902 20.3673 10.2712 20.2289 10.4013 20.1554C10.4654 20.1177 10.5384 20.0976 10.6127 20.097C10.6871 20.0964 10.7604 20.1154 10.8251 20.1521L19.8573 25.3649C19.9866 25.4402 20.0938 25.548 20.1684 25.6776C20.2429 25.8072 20.2822 25.9542 20.2822 26.1037V36.5287C20.2812 36.6029 20.2612 36.6757 20.2241 36.74C20.187 36.8043 20.1341 36.8581 20.0703 36.8962C20.0066 36.9337 19.9341 36.9538 19.8602 36.9546C19.7862 36.9554 19.7134 36.9368 19.6488 36.9007" fill="#4D4D4D"/>
<path d="M25.8597 0V8.5875L33.4576 12.9739C33.5881 13.05 33.6657 13.1899 33.6657 13.3429C33.6657 13.494 33.5862 13.6324 33.4576 13.7085L24.4264 18.9255C24.2967 18.9991 24.15 19.0378 24.0008 19.0378C23.8516 19.0378 23.705 18.9991 23.5752 18.9255L14.5467 13.7085C14.4826 13.6715 14.4294 13.6182 14.3925 13.5539C14.3556 13.4897 14.3364 13.4169 14.3367 13.3429C14.3361 13.2683 14.3553 13.195 14.3921 13.1302C14.429 13.0654 14.4823 13.0115 14.5467 12.9739L22.1431 8.5875V0L2.7522 11.1956L23.9967 23.4622L45.2461 11.196L25.8597 0Z" fill="#808080"/>
</svg>
